<?xml version="1.0" encoding="UTF-8"?>
<svg viewBox="0 0 238.28 219.98" xmlns="http://www.w3.org/2000/svg">
 <path transform="translate(6.9056 15.506)" d="m113.78 1.6875c-1.1644-0.15009-2.3234-0.12655-3.5312 0.09375a3.6022 3.6022 0 0 1 -0.0625 0.03125c-3.3649 0.56818-6.2902 2.5777-8.0312 5.5l-0.0312 0.03125-46.844 81.156-46.844 81.188a3.6022 3.6022 0 0 1 -0.0625 0.0625c-2.1979 3.6164-2.2519 8.1139-0.15625 11.781s5.9904 5.9012 10.219 5.8438a3.6022 3.6022 0 0 1 0.0625 0h187.47a3.6022 3.6022 0 0 1 0.0625 0c4.2284 0.0575 8.1213-2.1734 10.219-5.8438s2.0416-8.1649-0.15625-11.781a3.6022 3.6022 0 0 1 -0.0625 -0.0625l-46.875-81.188-46.844-81.188h0.0312c-1.85-3.1512-5.0635-5.174-8.5625-5.625z" fill="#fff"/>
 <path transform="translate(6.9056 15.498)" d="m112.59 10.906c-0.23018-0.02967-0.4135-0.01873-0.6875 0.03125a12.883 12.883 0 0 1 -0.15625 0c-0.7033 0.11876-1.2792 0.53958-1.625 1.125l-46.812 81.062-46.844 81.188a12.883 12.883 0 0 1 -0.15625 0.25c-0.45976 0.75649-0.45628 1.5999-0.03125 2.3438 0.43096 0.75417 1.1573 1.1994 2.0312 1.1875a12.883 12.883 0 0 1 0.1875 0h187.47a12.883 12.883 0 0 1 0.1875 0c0.8741 0.0119 1.6-0.43294 2.0312-1.1875 0.42513-0.74401 0.42841-1.5874-0.0312-2.3438a12.883 12.883 0 0 1 -0.1563 -0.25l-46.875-81.188-46.781-81.094c-0.37015-0.63049-1.039-1.0334-1.75-1.125z" fill="#fff"/>
 <path transform="translate(6.9056 15.504)" d="m113.25 6c-0.72844-0.09389-1.4467-0.07832-2.2188 0.0625a7.9335 7.9335 0 0 1 -0.125 0c-2.1077 0.35589-3.9075 1.5958-5 3.4062l-0.0312 0.0625-46.844 81.125-46.844 81.188a7.9335 7.9335 0 0 1 -0.0938 0.15625c-1.3868 2.2818-1.441 5.072-0.125 7.375 1.3197 2.3094 3.7746 3.6925 6.4375 3.6562a7.9335 7.9335 0 0 1 0.09375 0h187.47a7.9335 7.9335 0 0 1 0.0937 0c2.6631 0.0362 5.1176-1.3466 6.4375-3.6562 1.316-2.3032 1.2617-5.0933-0.125-7.375a7.9335 7.9335 0 0 1 -0.0937 -0.15625l-46.875-81.188-46.812-81.125-0.0312-0.0625c-1.1645-1.9408-3.1368-3.1883-5.3126-3.4688z" fill="none" stroke="#d40000" stroke-width="14.9"/>
 <g transform="matrix(2.3343 0 0 2.3343 -476.13 -41.524)" font-family="Bitstream Charter" font-size="72">
  <path d="m258.75575,53.9715c.144-2.016.216-3.384.216-4.176 0-3.384-1.368-5.184-3.96-5.184s-3.96,1.728-3.96,5.184c0,1.224.072,2.592.216,4.176l2.016,27.504h3.456l2.016-27.504m-3.744,32.256c-2.232,0-4.104,1.8-4.104,4.104s1.872,4.104 4.104,4.104c2.304,0 4.104-1.872 4.104-4.104 0-2.304-1.8-4.104-4.104-4.104"/>
 </g>
</svg>
